#!OML:ASF H:\Terrain\Patient Classification 1\Walking\liu\liu.ASF
:FULLY-SPECIFIED
:DEGREES
114
root 9.361740 16.196699 -21.441000 4.181150 3.580170 4.721810
lowerback -8.922518 -3.506701 -6.297291
upperback -1.101023 -4.210228 2.540186
thorax 4.445056 -2.213332 5.698781
lowerneck -21.386971 -5.653791 -14.654420
upperneck 23.617220 -6.449267 11.887370
head 11.957770 -2.770174 5.800509
rclavicle 0.000000 -0.000000
rhumerus -51.061123 10.439220 -92.906776
rradius 39.119083
rwrist -21.323942
rhand -32.452312 -26.332241
rfingers 7.837522
rthumb -3.120238 -59.289230
lclavicle 0.000000 -0.000000
lhumerus -27.412441 -29.317202 101.883102
lradius 46.713921
lwrist 14.344110
lhand -14.389541 -28.075081
lfingers 7.837522
lthumb 14.316280 4.456353
rfemur -44.343094 12.800151 8.018164
rtibia 31.593981
rfoot -24.764301 -9.411403
rtoes -20.501469
lfemur 14.906210 0.617718 -31.884602
ltibia 0.000000
lfoot -15.435861 2.980208
ltoes -3.717758
115
root 9.354020 16.174900 -21.302401 4.231690 4.031380 4.633090
lowerback -8.961843 -3.637700 -6.193220
upperback -1.089880 -4.391937 2.546346
thorax 4.496657 -2.303532 5.619856
lowerneck -21.261789 -5.696922 -14.591500
upperneck 23.441549 -6.546012 11.932140
head 11.882531 -2.805748 5.785703
rclavicle 0.000000 0.000000
rhumerus -51.031639 10.051855 -92.679733
rradius 38.809872
rwrist -21.096132
rhand -32.266411 -25.635611
rfingers 7.837522
rthumb -2.940773 -58.594913
lclavicle 0.000000 0.000000
lhumerus -27.898750 -29.406851 102.203529
lradius 46.875072
lwrist 14.318921
lhand -14.033690 -27.825491
lfingers 7.837522
lthumb 14.659261 4.683767
rfemur -44.656044 13.462131 7.443843
rtibia 31.060480
rfoot -25.796101 -10.388796
rtoes -20.909681
lfemur 15.440481 0.519603 -31.597830
ltibia 0.000000
lfoot -15.818770 2.668149
ltoes -3.136507
116
root 9.342890 16.148899 -21.162600 4.385290 4.162020 4.727800
lowerback -9.178026 -3.705801 -6.292770
upperback -1.058801 -4.457508 2.454386
thorax 4.659050 -2.341768 5.558707
lowerneck -21.382349 -5.636070 -14.446630
upperneck 23.469601 -6.531646 12.085590
head 11.913660 -2.766324 5.822410
rclavicle 0.000000 -0.000000
rhumerus -50.980270 9.740676 -92.595032
rradius 38.588772
rwrist -20.902752
rhand -32.457150 -25.475672
rfingers 7.837522
rthumb -3.124968 -58.432549
lclavicle 0.000000 -0.000000
lhumerus -28.280781 -29.457781 102.423203
lradius 46.831402
lwrist 14.250171
lhand -14.136100 -27.936811
lfingers 7.837522
lthumb 14.560480 4.578827
rfemur -45.145760 13.603260 7.050032
rtibia 30.584511
rfoot -26.056141 -10.985502
rtoes -21.530300
lfemur 15.869921 0.737748 -31.537109
ltibia 0.000000
lfoot -16.291000 2.285338
ltoes -2.896861
117
root 9.328610 16.125200 -21.029100 4.543250 4.375630 4.954440
lowerback -9.174869 -3.676222 -6.518952
upperback -1.145936 -4.392487 2.319691
thorax 4.562768 -2.306766 5.556078
lowerneck -21.182261 -5.593742 -14.535070
upperneck 23.356520 -6.546727 12.411190
head 11.850190 -2.747888 5.955928
rclavicle -0.000000 0.000000
rhumerus -51.259232 9.216780 -92.361725
rradius 38.450172
rwrist -20.809912
rhand -32.449123 -25.045790
rfingers 7.837522
rthumb -3.117224 -58.002781
lclavicle -0.000000 0.000000
lhumerus -28.715061 -29.699011 102.951317
lradius 46.625153
lwrist 14.039741
lhand -14.200120 -28.039000
lfingers 7.837522
lthumb 14.498880 4.480641
rfemur -45.603252 13.612061 6.488878
rtibia 30.212820
rfoot -26.221142 -11.409531
rtoes -21.553511
lfemur 16.328621 0.854879 -31.615980
ltibia -0.000000
lfoot -16.679190 1.891571
ltoes -2.778292
118
root 9.315570 16.107100 -20.893400 4.469860 4.855270 5.214280
lowerback -8.822516 -3.739263 -6.814764
upperback -1.190673 -4.469212 2.256639
thorax 4.345176 -2.341845 5.665209
lowerneck -21.094481 -5.653131 -14.765190
upperneck 23.382921 -6.617501 12.581800
head 11.867570 -2.782450 6.050264
rclavicle 0.000000 -0.000000
rhumerus -51.370220 8.819393 -92.143478
rradius 38.019524
rwrist -20.347582
rhand -32.657898 -24.754841
rfingers 7.837522
rthumb -3.318865 -57.709080
lclavicle 0.000000 -0.000000
lhumerus -29.421259 -29.887661 103.604599
lradius 46.706440
lwrist 13.792570
lhand -13.751871 -27.705481
lfingers 7.837522
lthumb 14.930850 4.785781
rfemur -45.631081 13.741640 5.799123
rtibia 29.937929
rfoot -26.732201 -12.000890
rtoes -21.153000
lfemur 17.069799 0.716599 -31.689680
ltibia -0.000000
lfoot -16.881701 1.466080
ltoes -2.274250
119
root 9.305690 16.098801 -20.750700 4.517150 5.265240 5.445620
lowerback -8.791464 -3.898741 -7.073330
upperback -1.184568 -4.661206 2.260797
thorax 4.379991 -2.442660 5.791280
lowerneck -21.197771 -5.773185 -15.116420
upperneck 23.510191 -6.705369 12.700050
head 11.964150 -2.836306 6.145887
rclavicle -0.000000 0.000000
rhumerus -51.414772 9.030824 -92.237534
rradius 37.754314
rwrist -19.857420
rhand -33.304150 -25.584021
rfingers 7.837522
rthumb -3.942873 -58.528584
lclavicle -0.000000 0.000000
lhumerus -30.227562 -29.970821 104.143494
lradius 46.938103
lwrist 13.662110
lhand -13.356640 -27.376251
lfingers 7.837522
lthumb 15.311780 5.089205
rfemur -45.715229 13.688620 5.270595
rtibia 29.692741
rfoot -26.866291 -12.460911
rtoes -20.491350
lfemur 17.631790 0.637000 -31.752050
ltibia 0.000000
lfoot -16.909641 1.251272
ltoes -3.125947
120
root 9.292840 16.090300 -20.607401 4.788760 5.479890 5.363900
lowerback -9.075891 -3.927693 -6.972207
upperback -1.254814 -4.693997 2.324982
thorax 4.467529 -2.458258 5.784504
lowerneck -21.036951 -5.852264 -15.338730
upperneck 23.385780 -6.781830 12.781450
head 11.910470 -2.883980 6.198610
rclavicle -0.000000 0.000000
rhumerus -51.779198 8.930031 -92.019295
rradius 37.883232
rwrist -19.842020
rhand -33.043671 -25.803471
rfingers 7.837522
rthumb -3.691336 -58.752102
lclavicle -0.000000 0.000000
lhumerus -30.771070 -30.018341 104.715271
lradius 46.693241
lwrist 13.482921
lhand -13.173270 -27.086182
lfingers 7.837522
lthumb 15.488550 5.367109
rfemur -46.121571 13.835251 5.065676
rtibia 29.455030
rfoot -26.578751 -13.437381
rtoes -22.129139
lfemur 17.887541 0.743023 -31.436790
ltibia -0.000000
lfoot -17.011721 1.020361
ltoes -4.053698
121
root 9.276140 16.074100 -20.465500 4.939340 5.737160 5.178970
lowerback -9.158743 -3.977644 -6.819561
upperback -1.248973 -4.771525 2.384646
thorax 4.524366 -2.496681 5.745883
lowerneck -21.156521 -5.823389 -15.103440
upperneck 23.394251 -6.760996 12.641200
head 11.919710 -2.867271 6.107948
rclavicle -0.000000 -0.000000
rhumerus -51.797241 8.332126 -91.479416
rradius 37.786762
rwrist -19.999100
rhand -32.161140 -25.088690
rfingers 7.837522
rthumb -2.839111 -58.049202
lclavicle -0.000000 -0.000000
lhumerus -30.979301 -29.685812 105.043625
lradius 46.142582
lwrist 13.096601
lhand -12.739981 -26.616590
lfingers 7.837522
lthumb 15.905890 5.807220
rfemur -46.333981 13.904551 5.107773
rtibia 29.167381
rfoot -27.596142 -14.829761
rtoes -24.295481
lfemur 18.253292 0.821696 -30.949600
ltibia 0.000000
lfoot -17.129860 0.673095
ltoes -4.498252
122
root 9.258860 16.048300 -20.325100 5.012830 6.060900 5.270320
lowerback -9.064429 -4.111943 -6.957489
upperback -1.222947 -4.941695 2.339502
thorax 4.529778 -2.583955 5.756685
lowerneck -21.410839 -5.817086 -14.694131
upperneck 23.519321 -6.771699 12.321211
head 11.989450 -2.868283 5.917505
rclavicle 0.000000 0.000000
rhumerus -51.636421 8.141023 -91.470947
rradius 37.474693
rwrist -20.640072
rhand -32.479042 -24.690491
rfingers 7.837522
rthumb -3.146110 -57.647152
lclavicle 0.000000 0.000000
lhumerus -31.328882 -29.196861 105.247337
lradius 45.695320
lwrist 12.566951
lhand -12.195590 -26.545200
lfingers 7.837522
lthumb 16.430481 5.840329
rfemur -46.327713 13.545290 5.041697
rtibia 28.817360
rfoot -27.395170 -15.061090
rtoes -24.626360
lfemur 18.711880 0.823895 -30.786140
ltibia 0.000000
lfoot -17.017111 0.425651
ltoes -4.885276
